{
  "accessors": [
    {
      "bufferView": 1,
      "componentType": 5126,
      "count": 65532,
      "max": [
        31.45745849609375,
        34.463211059570312,
        37.450672149658203
      ],
      "min": [
        9.3948688507080078,
        5.1060142517089844,
        1.8445014953613281
      ],
      "type": "VEC3"
    },
    {
      "bufferView": 1,
      "byteOffset": 786384,
      "componentType": 5126,
      "count": 65532,
      "max": [
        0.9999995231628418,
        0.99999153614044189,
        0.99998486042022705
      ],
      "min": [
        -0.99993807077407837,
        -0.99978542327880859,
        -0.99989944696426392
      ],
      "type": "VEC3"
    },
    {
      "bufferView": 2,
      "componentType": 5126,
      "count": 65532,
      "max": [
        0.9960780143737793,
        0.96862697601318359,
        0.93333297967910767,
        1
      ],
      "min": [
        0.031373001635074615,
        0,
        0,
        1
      ],
      "type": "VEC4"
    },
    {
      "bufferView": 0,
      "componentType": 5125,
      "count": 315456,
      "max": [
        65531
      ],
      "min": [
        0
      ],
      "type": "SCALAR"
    },
    {
      "bufferView": 1,
      "byteOffset": 1572768,
      "componentType": 5126,
      "count": 65532,
      "max": [
        25.906562805175781,
        32.227012634277344,
        36.929477691650391
      ],
      "min": [
        9.0956792831420898,
        2.7357234954833984,
        2.54351806640625
      ],
      "type": "VEC3"
    },
    {
      "bufferView": 1,
      "byteOffset": 2359152,
      "componentType": 5126,
      "count": 65532,
      "max": [
        0.99996161460876465,
        0.99999690055847168,
        0.99993085861206055
      ],
      "min": [
        -0.99994856119155884,
        -0.99995583295822144,
        -0.99989414215087891
      ],
      "type": "VEC3"
    },
    {
      "bufferView": 2,
      "byteOffset": 1048512,
      "componentType": 5126,
      "count": 65532,
      "max": [
        0.9960780143737793,
        0.87843102216720581,
        0.80000001192092896,
        1
      ],
      "min": [
        0.023529000580310822,
        0,
        0,
        1
      ],
      "type": "VEC4"
    },
    {
      "bufferView": 0,
      "byteOffset": 1261824,
      "componentType": 5125,
      "count": 305229,
      "max": [
        65531
      ],
      "min": [
        0
      ],
      "type": "SCALAR"
    },
    {
      "bufferView": 1,
      "byteOffset": 3145536,
      "componentType": 5126,
      "count": 65532,
      "max": [
        35.091598510742188,
        32.557853698730469,
        36.608020782470703
      ],
      "min": [
        7.5901737213134766,
        5.8682289123535156,
        2.0392074584960938
      ],
      "type": "VEC3"
    },
    {
      "bufferView": 1,
      "byteOffset": 3931920,
      "componentType": 5126,
      "count": 65532,
      "max": [
        0.99999070167541504,
        0.99998933076858521,
        0.99999761581420898
      ],
      "min": [
        -0.99995976686477661,
        -0.99968767166137695,
        -0.99929696321487427
      ],
      "type": "VEC3"
    },
    {
      "bufferView": 2,
      "byteOffset": 2097024,
      "componentType": 5126,
      "count": 65532,
      "max": [
        0.9960780143737793,
        0.92549002170562744,
        0.91372501850128174,
        1
      ],
      "min": [
        0.035294000059366226,
        0,
        0,
        1
      ],
      "type": "VEC4"
    },
    {
      "bufferView": 0,
      "byteOffset": 2482740,
      "componentType": 5125,
      "count": 310521,
      "max": [
        65531
      ],
      "min": [
        0
      ],
      "type": "SCALAR"
    },
    {
      "bufferView": 1,
      "byteOffset": 4718304,
      "componentType": 5126,
      "count": 65532,
      "max": [
        35.112190246582031,
        34.432426452636719,
        24.32574462890625
      ],
      "min": [
        10.280205726623535,
        3.7547473907470703,
        0
      ],
      "type": "VEC3"
    },
    {
      "bufferView": 1,
      "byteOffset": 5504688,
      "componentType": 5126,
      "count": 65532,
      "max": [
        0.99999338388442993,
        0.99998360872268677,
        0.99999624490737915
      ],
      "min": [
        -0.99999517202377319,
        -0.99997526407241821,
        -0.99927204847335815
      ],
      "type": "VEC3"
    },
    {
      "bufferView": 2,
      "byteOffset": 3145536,
      "componentType": 5126,
      "count": 65532,
      "max": [
        0.9960780143737793,
        0.92549002170562744,
        0.89019602537155151,
        1
      ],
      "min": [
        0.023529000580310822,
        0,
        0,
        1
      ],
      "type": "VEC4"
    },
    {
      "bufferView": 0,
      "byteOffset": 3724824,
      "componentType": 5125,
      "count": 294429,
      "max": [
        65531
      ],
      "min": [
        0
      ],
      "type": "SCALAR"
    },
    {
      "bufferView": 1,
      "byteOffset": 6291072,
      "componentType": 5126,
      "count": 65532,
      "max": [
        33.051052093505859,
        32.485740661621094,
        21.400463104248047
      ],
      "min": [
        10.186845779418945,
        5.0997428894042969,
        2.0037345886230469
      ],
      "type": "VEC3"
    },
    {
      "bufferView": 1,
      "byteOffset": 7077456,
      "componentType": 5126,
      "count": 65532,
      "max": [
        0.99999070167541504,
        0.99998933076858521,
        0.99999487400054932
      ],
      "min": [
        -0.99994778633117676,
        -0.99997526407241821,
        -0.99921345710754395
      ],
      "type": "VEC3"
    },
    {
      "bufferView": 2,
      "byteOffset": 4194048,
      "componentType": 5126,
      "count": 65532,
      "max": [
        0.9960780143737793,
        0.92549002170562744,
        0.89019602537155151,
        1
      ],
      "min": [
        0.019608000293374062,
        0,
        0,
        1
      ],
      "type": "VEC4"
    },
    {
      "bufferView": 0,
      "byteOffset": 4902540,
      "componentType": 5125,
      "count": 287193,
      "max": [
        65531
      ],
      "min": [
        0
      ],
      "type": "SCALAR"
    },
    {
      "bufferView": 1,
      "byteOffset": 7863840,
      "componentType": 5126,
      "count": 65534,
      "max": [
        36.011184692382812,
        34.229728698730469,
        19.333087921142578
      ],
      "min": [
        0.012533187866210938,
        0,
        1.1110191345214844
      ],
      "type": "VEC3"
    },
    {
      "bufferView": 1,
      "byteOffset": 8650248,
      "componentType": 5126,
      "count": 65534,
      "max": [
        0.99999964237213135,
        0.99999970197677612,
        0.99999213218688965
      ],
      "min": [
        -0.9999886155128479,
        -0.99993544816970825,
        -0.99831503629684448
      ],
      "type": "VEC3"
    },
    {
      "bufferView": 2,
      "byteOffset": 5242560,
      "componentType": 5126,
      "count": 65534,
      "max": [
        0.9960780143737793,
        0.85882401466369629,
        0.87058800458908081,
        1
      ],
      "min": [
        0.019608000293374062,
        0,
        0,
        1
      ],
      "type": "VEC4"
    },
    {
      "bufferView": 0,
      "byteOffset": 6051312,
      "componentType": 5125,
      "count": 294690,
      "max": [
        65533
      ],
      "min": [
        0
      ],
      "type": "SCALAR"
    },
    {
      "bufferView": 1,
      "byteOffset": 9436656,
      "componentType": 5126,
      "count": 65532,
      "max": [
        25.126960754394531,
        30.263036727905273,
        37.358585357666016
      ],
      "min": [
        9.0558404922485352,
        2.7812213897705078,
        3.7295608520507812
      ],
      "type": "VEC3"
    },
    {
      "bufferView": 1,
      "byteOffset": 10223040,
      "componentType": 5126,
      "count": 65532,
      "max": [
        0.99995130300521851,
        0.99995756149291992,
        0.99989235401153564
      ],
      "min": [
        -0.99999701976776123,
        -0.99987542629241943,
        -0.99970149993896484
      ],
      "type": "VEC3"
    },
    {
      "bufferView": 2,
      "byteOffset": 6291104,
      "componentType": 5126,
      "count": 65532,
      "max": [
        0.9960780143737793,
        0.96862697601318359,
        0.93333297967910767,
        1
      ],
      "min": [
        0,
        0,
        0,
        1
      ],
      "type": "VEC4"
    },
    {
      "bufferView": 0,
      "byteOffset": 7230072,
      "componentType": 5125,
      "count": 278466,
      "max": [
        65531
      ],
      "min": [
        0
      ],
      "type": "SCALAR"
    },
    {
      "bufferView": 1,
      "byteOffset": 11009424,
      "componentType": 5126,
      "count": 65532,
      "max": [
        34.905021667480469,
        22.66380500793457,
        37.438114166259766
      ],
      "min": [
        3.2023277282714844,
        1.8663558959960938,
        2.4783134460449219
      ],
      "type": "VEC3"
    },
    {
      "bufferView": 1,
      "byteOffset": 11795808,
      "componentType": 5126,
      "count": 65532,
      "max": [
        0.99999338388442993,
        0.99998575448989868,
        0.99999243021011353
      ],
      "min": [
        -0.99897021055221558,
        -0.99996250867843628,
        -0.99969190359115601
      ],
      "type": "VEC3"
    },
    {
      "bufferView": 2,
      "byteOffset": 7339616,
      "componentType": 5126,
      "count": 65532,
      "max": [
        0.9960780143737793,
        0.9960780143737793,
        0.9960780143737793,
        1
      ],
      "min": [
        0,
        0,
        0,
        1
      ],
      "type": "VEC4"
    },
    {
      "bufferView": 0,
      "byteOffset": 8343936,
      "componentType": 5125,
      "count": 281022,
      "max": [
        65531
      ],
      "min": [
        0
      ],
      "type": "SCALAR"
    },
    {
      "bufferView": 1,
      "byteOffset": 12582192,
      "componentType": 5126,
      "count": 65532,
      "max": [
        36.110122680664062,
        21.658441543579102,
        37.173252105712891
      ],
      "min": [
        9.0536870956420898,
        5.0840339660644531,
        2.5708045959472656
      ],
      "type": "VEC3"
    },
    {
      "bufferView": 1,
      "byteOffset": 13368576,
      "componentType": 5126,
      "count": 65532,
      "max": [
        0.99998676776885986,
        0.9999350905418396,
        0.99999487400054932
      ],
      "min": [
        -0.99996346235275269,
        -0.99994111061096191,
        -0.99860036373138428
      ],
      "type": "VEC3"
    },
    {
      "bufferView": 2,
      "byteOffset": 8388128,
      "componentType": 5126,
      "count": 65532,
      "max": [
        0.9960780143737793,
        0.9960780143737793,
        0.9960780143737793,
        1
      ],
      "min": [
        0.019608000293374062,
        0.0039220000617206097,
        0,
        1
      ],
      "type": "VEC4"
    },
    {
      "bufferView": 0,
      "byteOffset": 9468024,
      "componentType": 5125,
      "count": 282108,
      "max": [
        65531
      ],
      "min": [
        0
      ],
      "type": "SCALAR"
    },
    {
      "bufferView": 1,
      "byteOffset": 14154960,
      "componentType": 5126,
      "count": 65532,
      "max": [
        26.560735702514648,
        20.335037231445312,
        37.173252105712891
      ],
      "min": [
        0,
        0,
        1.3410415649414062
      ],
      "type": "VEC3"
    },
    {
      "bufferView": 1,
      "byteOffset": 14941344,
      "componentType": 5126,
      "count": 65532,
      "max": [
        0.99999964237213135,
        0.99986279010772705,
        0.99999558925628662
      ],
      "min": [
        -0.99999499320983887,
        -0.99999922513961792,
        -0.99942898750305176
      ],
      "type": "VEC3"
    },
    {
      "bufferView": 2,
      "byteOffset": 9436640,
      "componentType": 5126,
      "count": 65532,
      "max": [
        0.9960780143737793,
        0.88627499341964722,
        0.88235300779342651,
        1
      ],
      "min": [
        0.015685999765992165,
        0,
        0,
        1
      ],
      "type": "VEC4"
    },
    {
      "bufferView": 0,
      "byteOffset": 10596456,
      "componentType": 5125,
      "count": 252375,
      "max": [
        65531
      ],
      "min": [
        0
      ],
      "type": "SCALAR"
    },
    {
      "bufferView": 1,
      "byteOffset": 15727728,
      "componentType": 5126,
      "count": 15930,
      "max": [
        20.232933044433594,
        17.034938812255859,
        20.416919708251953
      ],
      "min": [
        10.711292266845703,
        2.7535495758056641,
        2.9832878112792969
      ],
      "type": "VEC3"
    },
    {
      "bufferView": 1,
      "byteOffset": 15918888,
      "componentType": 5126,
      "count": 15930,
      "max": [
        0.99922043085098267,
        0.99621349573135376,
        0.99984228610992432
      ],
      "min": [
        -0.9999842643737793,
        -0.99987006187438965,
        -0.99737811088562012
      ],
      "type": "VEC3"
    },
    {
      "bufferView": 2,
      "byteOffset": 10485152,
      "componentType": 5126,
      "count": 15930,
      "max": [
        0.9960780143737793,
        0.87843102216720581,
        0.80784302949905396,
        1
      ],
      "min": [
        0.031373001635074615,
        0,
        0,
        1
      ],
      "type": "VEC4"
    },
    {
      "bufferView": 0,
      "byteOffset": 11605956,
      "componentType": 5125,
      "count": 47133,
      "max": [
        15929
      ],
      "min": [
        0
      ],
      "type": "SCALAR"
    }
  ],
  "asset": {
    "extras": {
      "author": "lubenko (https://sketchfab.com/lubenko)",
      "license": "CC-BY-4.0 (http://creativecommons.org/licenses/by/4.0/)",
      "source": "https://sketchfab.com/models/1973fab7550a4c508fc972fab5456419",
      "title": "tiger Tigger"
    },
    "generator": "Sketchfab-3.18.6",
    "version": "2.0"
  },
  "bufferViews": [
    {
      "buffer": 0,
      "byteLength": 11794488,
      "byteOffset": 0,
      "name": "floatBufferViews",
      "target": 34963
    },
    {
      "buffer": 0,
      "byteLength": 16110048,
      "byteOffset": 11794488,
      "byteStride": 12,
      "name": "floatBufferViews",
      "target": 34962
    },
    {
      "buffer": 0,
      "byteLength": 10740032,
      "byteOffset": 27904536,
      "byteStride": 16,
      "name": "floatBufferViews",
      "target": 34962
    }
  ],
  "buffers": [
    {
      "byteLength": 38644568,
      "uri": "scene.bin"
    }
  ],
  "extensionsUsed": [
    "KHR_materials_unlit"
  ],
  "materials": [
    {
      "doubleSided": true,
      "emissiveFactor": [
        0,
        0,
        0
      ],
      "extensions": {
        "KHR_materials_unlit": {}
      },
      "name": "model_Material",
      "pbrMetallicRoughness": {
        "baseColorFactor": [
          1,
          1,
          1,
          1
        ],
        "metallicFactor": 0,
        "roughnessFactor": 1
      }
    }
  ],
  "meshes": [
    {
      "primitives": [
        {
          "attributes": {
            "COLOR_0": 2,
            "NORMAL": 1,
            "POSITION": 0
          },
          "indices": 3,
          "material": 0,
          "mode": 4
        }
      ]
    },
    {
      "primitives": [
        {
          "attributes": {
            "COLOR_0": 6,
            "NORMAL": 5,
            "POSITION": 4
          },
          "indices": 7,
          "material": 0,
          "mode": 4
        }
      ]
    },
    {
      "primitives": [
        {
          "attributes": {
            "COLOR_0": 10,
            "NORMAL": 9,
            "POSITION": 8
          },
          "indices": 11,
          "material": 0,
          "mode": 4
        }
      ]
    },
    {
      "primitives": [
        {
          "attributes": {
            "COLOR_0": 14,
            "NORMAL": 13,
            "POSITION": 12
          },
          "indices": 15,
          "material": 0,
          "mode": 4
        }
      ]
    },
    {
      "primitives": [
        {
          "attributes": {
            "COLOR_0": 18,
            "NORMAL": 17,
            "POSITION": 16
          },
          "indices": 19,
          "material": 0,
          "mode": 4
        }
      ]
    },
    {
      "primitives": [
        {
          "attributes": {
            "COLOR_0": 22,
            "NORMAL": 21,
            "POSITION": 20
          },
          "indices": 23,
          "material": 0,
          "mode": 4
        }
      ]
    },
    {
      "primitives": [
        {
          "attributes": {
            "COLOR_0": 26,
            "NORMAL": 25,
            "POSITION": 24
          },
          "indices": 27,
          "material": 0,
          "mode": 4
        }
      ]
    },
    {
      "primitives": [
        {
          "attributes": {
            "COLOR_0": 30,
            "NORMAL": 29,
            "POSITION": 28
          },
          "indices": 31,
          "material": 0,
          "mode": 4
        }
      ]
    },
    {
      "primitives": [
        {
          "attributes": {
            "COLOR_0": 34,
            "NORMAL": 33,
            "POSITION": 32
          },
          "indices": 35,
          "material": 0,
          "mode": 4
        }
      ]
    },
    {
      "primitives": [
        {
          "attributes": {
            "COLOR_0": 38,
            "NORMAL": 37,
            "POSITION": 36
          },
          "indices": 39,
          "material": 0,
          "mode": 4
        }
      ]
    },
    {
      "primitives": [
        {
          "attributes": {
            "COLOR_0": 42,
            "NORMAL": 41,
            "POSITION": 40
          },
          "indices": 43,
          "material": 0,
          "mode": 4
        }
      ]
    }
  ],
  "nodes": [
    {
      "children": [
        1
      ],
      "name": "RootNode (gltf orientation matrix)",
      "rotation": [
        -0.70710678118654746,
        -0,
        -0,
        0.70710678118654757
      ]
    },
    {
      "children": [
        2
      ],
      "name": "RootNode (model correction matrix)"
    },
    {
      "children": [
        3,
        4,
        5,
        6,
        7,
        8,
        9,
        10,
        11,
        12,
        13
      ],
      "matrix": [
        1,
        0,
        0,
        0,
        0,
        1,
        0,
        0,
        0,
        0,
        1,
        0,
        -17.186689376831055,
        11.35993766784668,
        29.074825286865234,
        1
      ],
      "name": "model.obj.cleaner.gles"
    },
    {
      "mesh": 0,
      "name": ""
    },
    {
      "mesh": 1,
      "name": ""
    },
    {
      "mesh": 2,
      "name": ""
    },
    {
      "mesh": 3,
      "name": ""
    },
    {
      "mesh": 4,
      "name": ""
    },
    {
      "mesh": 5,
      "name": ""
    },
    {
      "mesh": 6,
      "name": ""
    },
    {
      "mesh": 7,
      "name": ""
    },
    {
      "mesh": 8,
      "name": ""
    },
    {
      "mesh": 9,
      "name": ""
    },
    {
      "mesh": 10,
      "name": ""
    }
  ],
  "scene": 0,
  "scenes": [
    {
      "name": "OSG_Scene",
      "nodes": [
        0
      ]
    }
  ]
}

